PathFileType	4	(X/Y/Z)	Patient4_TMGait_0pt7_01_left_08.trc.trc
DataRate	CameraRate	NumFrames	NumMarkers	Units	OrigDataRate	OrigDataStartFrame	OrigNumFrames
88.050314465409	88.050314465409	6	33	mm	88.050314465409	1	       141
Frame#	Time	Sacral			L.Shoulder			Chest			R.Shoulder			Neck			R.ASIS			L.ASIS			R.Thigh.Superior			R.Thigh.Lateral			R.Thigh.Inferior			R.Patella			L.Thigh.Superior			L.Thigh.Lateral			L.Thigh.Inferior			L.Patella			L.Shank.Superior			L.Shank.Lateral			L.Shank.Inferior			R.Shank.Superior			R.Shank.Lateral			R.Shank.Inferior			R.Heel			R.Midfoot.Superior			R.Midfoot.Lateral			R.Toe			L.Heel			L.Midfoot.Lateral			L.Midfoot.Superior			L.Toe			L.Elbow			L.Wrist			R.Elbow			R.Wrist			
		X1	Y1	Z1	X2	Y2	Z2	X3	Y3	Z3	X4	Y4	Z4	X5	Y5	Z5	X6	Y6	Z6	X7	Y7	Z7	X8	Y8	Z8	X9	Y9	Z9	X10	Y10	Z10	X11	Y11	Z11	X12	Y12	Z12	X13	Y13	Z13	X14	Y14	Z14	X15	Y15	Z15	X16	Y16	Z16	X17	Y17	Z17	X18	Y18	Z18	X19	Y19	Z19	X20	Y20	Z20	X21	Y21	Z21	X22	Y22	Z22	X23	Y23	Z23	X24	Y24	Z24	X25	Y25	Z25	X26	Y26	Z26	X27	Y27	Z27	X28	Y28	Z28	X29	Y29	Z29	X30	Y30	Z30	X31	Y31	Z31	X32	Y32	Z32	X33	Y33	Z33	

1	9.210000000000	751.498495591802	1006.310537486076	528.851872536448	920.705916543776	1428.779758874731	323.857291856347	1038.997188357293	1353.977837410901	472.735798768985	982.284300876524	1435.828275221466	653.473928692568	950.255475626722	1491.358160436010	477.118224538209	989.687617571463	947.277329649477	631.472272434213	951.571536199384	958.945366239383	356.394260001805	1023.209975633770	743.442477425447	605.550910513925	938.132135058111	635.183899837671	663.115793640161	1013.876093593429	582.154444971281	583.309043048746	1010.556115796599	495.575045032201	586.312744740075	1039.923503248949	786.140324548160	380.603535234789	996.600461413729	657.816674537103	301.901321019160	1106.680999139162	598.438095817057	354.697115940277	1122.861161880920	507.938527136101	345.677144576459	1056.390511289206	438.528140968335	343.082155690656	913.442700123358	394.695073301875	299.578468747725	903.540701028112	266.412971163456	357.239279321163	985.252046001999	406.916413342272	592.535368772768	915.408848013824	301.356647713056	653.515877760613	959.359736246764	208.454119546959	586.495882635994	827.503276950341	41.869315406523	554.986502908697	999.722760653714	97.150315083048	584.674989124746	913.613262686579	36.220513457109	626.164482969962	1121.145948173704	46.606870134395	607.977960686616	713.835596709592	202.035236648461	400.944915011988	769.615568919975	155.413525858991	319.853961696185	875.388520173999	163.524134718029	338.481338002294	952.297193915952	51.005333260410	309.778907166443	838.511528933467	1082.947618402586	224.077763702561	1019.733209342825	895.204175475741	231.770805180702	952.663859888455	1091.888145683214	790.153747409490	1065.329691171236	855.816145275610	759.981926585884	
2	9.221357142857	750.618395155077	1006.988828830183	530.265323286684	919.313903160633	1429.361572072817	325.086653943669	1038.402282387873	1354.304740935736	473.207345132306	982.693464328711	1435.910413245293	654.378969697509	949.649341349439	1491.714433337279	478.301900970509	988.490631077667	947.072109576501	631.469374392056	949.919861297373	959.343084541840	356.906611402201	1019.500813774085	742.850188559806	605.345325080749	933.334386074779	635.471741018620	663.851174952275	1007.731329810232	581.532686300828	583.819748714305	1003.469787057804	495.249612295831	587.033677214793	1039.921999521280	789.416218367549	381.385670201506	999.247559430131	660.585229392712	301.989658805654	1110.201801876655	603.235471673818	354.675277714793	1128.464158442212	513.743736971417	345.407312909865	1065.449610035633	442.391632490058	342.510834730579	925.254558353892	391.338407577953	299.681003656280	923.053660272645	262.677726924059	356.283487662558	977.764150563096	406.797538470518	593.048811306764	907.586795329970	301.457057452521	653.912590709431	951.275262492835	208.442729996427	586.877667715236	819.229867668242	41.920123051671	554.967162414320	991.440000152059	97.183650301752	584.922985731716	905.234566544966	36.242500938096	626.245444167689	1112.769033337996	46.317738373410	608.113398347506	738.552703404381	187.499159042706	400.912399300361	795.844219315672	145.062882009782	318.910512353942	900.679576537592	159.074269128402	336.843851877449	983.313254099210	52.019948884564	306.357440388490	832.900153392655	1084.018663426012	227.530014997360	997.750862379291	884.054945593223	234.214914547367	963.804438605153	1091.301916825267	790.156665691230	1090.118684979297	865.106854915333	754.320892250485	
3	9.232714285714	749.771612548023	1007.640089984554	531.637736404511	917.952772596643	1429.911938439252	326.280610851179	1037.822365951605	1354.606654603824	473.657251751692	983.095884001987	1435.975302869477	655.257602334592	949.046615083404	1492.044605608613	479.460655861394	987.349945566799	946.879608727622	631.480760619370	948.320268586503	959.715181286338	357.396843212842	1015.829014473929	742.264057361911	605.136842196821	928.592129316111	635.756735363435	664.569768643544	1001.669474551398	580.917924521213	584.329606724658	996.467347114339	494.926892497085	587.756060866182	1039.870375071103	792.555047852736	382.156921946810	1001.778515896244	663.232070783776	302.100793872219	1113.524951717365	607.833840183985	354.739194540636	1133.825119847209	519.376388771984	345.210597508318	1074.268543772373	446.152775689163	341.997926664613	936.966173601832	387.899731724234	299.726072735855	942.443644280512	258.963832932091	355.294595065247	970.369089433883	406.686107105306	593.568341625805	899.852700854690	301.557706229179	654.303780287427	943.296416214573	208.433982183420	587.257506693126	811.050756854946	41.977231604818	554.954931476350	983.262006522657	97.209945520521	585.156721833511	896.962741707007	36.267331553890	626.331288508645	1104.499491645849	46.027104901863	608.246069996832	763.264228402423	173.072738882171	400.707510888728	822.068724682791	134.810452464105	317.861480539477	925.876458078522	154.695016030497	335.187841934799	1014.172001818918	53.147980959037	303.036024691193	827.391838258460	1085.062453800333	230.910517289485	975.852127481657	873.277101316853	236.590598337815	974.791789045036	1090.762117537125	790.131609787472	1114.544781613633	874.581646156960	748.603910124397	
4	9.244071428571	748.985906005217	1008.231807956280	532.914308714588	916.651703205158	1430.394019687298	327.399587447995	1037.267354344715	1354.852922895945	474.062149054544	983.475428022128	1435.997608328393	656.079695648733	948.444412188839	1492.316400746511	480.565658522337	986.308492625757	946.704515143996	631.519512081118	946.835843728067	960.022124776065	357.839198816145	1012.217365401041	741.677124690365	604.944867834882	923.921192936801	636.031731283725	665.257213585513	995.728155000020	580.308004795101	584.842317302252	989.581714732127	494.601269713540	588.479278012541	1039.713015313090	795.394062341192	382.910458257466	1004.065871740155	665.614205332423	302.237829479219	1116.443404471328	612.008918321440	354.962711021648	1138.702110663923	524.663369060372	345.163750364090	1082.638083689567	449.719275738962	341.596831889180	948.572579900122	384.289421190763	299.642974030003	961.716432347584	255.321054825046	354.238111302869	963.100670064894	406.583165815628	594.096072147041	892.225673808399	301.659048576483	654.682817540541	935.447408341035	208.427900799939	587.631430272016	802.968018849372	42.046884334426	554.955156200714	975.200031215855	97.223270330739	585.365333751585	888.809147519755	36.298347541025	626.425507059285	1096.349962395526	45.732161975290	608.374633570343	788.170062226865	158.858545175384	400.151638917867	848.502945233138	124.774730197721	316.605509607922	951.068729003258	150.505085269267	333.497681231898	1044.914047513402	54.604247601341	299.942929524760	822.025527509899	1086.075388000814	234.136963851493	953.981650416612	863.260987163758	238.855809049473	985.590872204563	1090.338641041948	790.003460598003	1138.373780538065	884.646109935449	742.689427611436	
5	9.255428571429	748.285731965498	1008.733667675419	534.046373312269	915.435372671376	1430.776951509071	328.410172138183	1036.744225827270	1355.016038622695	474.402403884330	983.817170774655	1435.953484898146	656.819240612578	947.839915205302	1492.501812299666	481.591260496187	985.391449808682	946.547616945051	631.592966165694	945.521282666005	960.225714738827	358.213146235536	1008.689950380820	741.080412203530	604.798033787668	919.325591686664	636.287706691679	665.903817815172	989.930577493816	579.699005720985	585.364757854034	982.834289810609	494.266369271373	589.203012566197	1039.403674636580	797.790549586133	383.642291755786	1006.002758972250	667.606323600212	302.396710370437	1118.786444281308	615.566982528565	355.402953134923	1142.901262690389	529.460015438389	345.332234354512	1090.394337002485	453.016929950064	341.353825428095	960.096823398737	380.446364268958	299.365105862560	980.893499864841	251.813587937771	353.090859802987	955.974257953303	406.486330400237	594.631442986446	884.709135015917	301.761025554906	655.043035390991	927.730257690529	208.423171547574	587.995233445835	794.965070941679	42.132476431412	554.970066154128	967.242889952205	97.220338067511	585.542508423807	880.760873663734	36.337944425734	626.529304680769	1088.309234911653	45.430788590337	608.498699427306	813.459058142150	144.971375854540	399.092824810269	875.357534394850	115.088694042989	315.062424284658	976.356167649236	146.634771023239	331.769499952787	1075.596679357005	56.604736652027	297.208993282180	816.813657078103	1087.062737122377	237.135809523927	932.095861711107	854.342938801448	240.986471520754	996.200564585858	1090.091739576281	789.696728989153	1161.428913519312	895.677012826945	736.444412866391	
6	9.266785714286	747.690400947493	1009.119540284613	534.993445232948	914.323599768763	1431.038108845201	329.286081483700	1036.256982623980	1355.074445213427	474.663401718404	984.107023363087	1435.823093795519	657.455177171031	947.231357340281	1492.579504911049	482.515246690374	984.606041486290	946.405482209607	631.702684980332	944.420698730251	960.292479641548	358.504177640939	1005.273940460437	740.463739908828	604.730988473179	914.804565146113	636.514613364611	666.504244141829	984.292283406413	579.086279430698	585.904551865844	976.242597757511	493.915271636129	589.924298349904	1038.912227025404	799.631716676588	384.349936808536	1007.510603910587	669.109971439256	302.564547201059	1120.434721873255	618.358584699154	356.090131834941	1146.290068790008	533.656481663170	345.761053348985	1097.422848600363	455.991554365613	341.301735863043	971.565078845001	376.352458856084	298.839308449808	999.973807930195	248.520309694154	351.846286121238	948.996101474267	406.389658577500	595.169414223730	877.301541838257	301.862885645684	655.377560885972	920.135136791110	208.416971755216	588.343785775155	787.018218485786	42.234473385358	554.998798912741	959.368345352957	97.201097274172	585.687170408899	872.792344945625	36.387255875014	626.641091744373	1080.353581948262	45.122373107120	608.618745819916	839.241582338737	131.552969953359	397.428979410823	902.765898104819	105.903981860354	313.188580879110	1001.790054666087	143.219672169960	330.015763788658	1106.229054030371	59.339645516540	294.958373883203	811.747825314221	1088.038042426953	239.843258061063	910.205415471880	846.784852979782	242.976510923584	1006.638898956999	1090.068583317579	789.140607059902	1183.569227978460	907.971302334979	729.768090853342	
